<?xml version="1.0" encoding="iso-8859-1"?>
<!-- Uploaded to: SVG Repo, www.svgrepo.com, Generator: SVG Repo Mixer Tools -->
<svg height="800px" width="800px" version="1.1" id="Capa_1" xmlns="http://www.w3.org/2000/svg" xmlns:xlink="http://www.w3.org/1999/xlink" 
	 viewBox="0 0 337.222 337.222" xml:space="preserve">
<g>
	<path style="fill:#010002;" d="M278.676,164.532h-32.923c-2.252,0-4.079,1.828-4.079,4.079c0,2.252,1.828,4.079,4.079,4.079h32.923
		c2.252,0,4.079-1.828,4.079-4.079S280.928,164.532,278.676,164.532z"/>
	<path style="fill:#010002;" d="M168.611,241.369c-2.252,0-4.079,1.828-4.079,4.079v32.781c0,2.252,1.828,4.079,4.079,4.079
		c2.252,0,4.079-1.828,4.079-4.079v-32.781C172.69,243.197,170.863,241.369,168.611,241.369z"/>
	<path style="fill:#010002;" d="M95.543,168.611c0-2.252-1.828-4.079-4.079-4.079H58.541c-2.252,0-4.079,1.828-4.079,4.079
		c0,2.252,1.828,4.079,4.079,4.079h32.923C93.715,172.69,95.543,170.863,95.543,168.611z"/>
	<path style="fill:#010002;" d="M168.611,95.853c2.252,0,4.079-1.828,4.079-4.079V58.992c0-2.252-1.828-4.079-4.079-4.079
		s-4.079,1.828-4.079,4.079v32.781C164.532,94.025,166.359,95.853,168.611,95.853z"/>
	<path style="fill:#010002;" d="M225.89,70.262c-1.958-1.115-4.444-0.468-5.58,1.474L207.794,93.22
		c-1.131,1.947-0.473,4.444,1.474,5.58c0.647,0.37,1.354,0.555,2.051,0.555c1.409,0,2.774-0.729,3.53-2.023l12.515-21.484
		C228.495,73.895,227.837,71.399,225.89,70.262z"/>
	<path style="fill:#010002;" d="M242.25,130.151c0.691,0,1.392-0.174,2.034-0.549l21.571-12.461c1.947-1.126,2.616-3.622,1.49-5.57
		c-1.12-1.942-3.612-2.627-5.57-1.49l-21.571,12.461c-1.947,1.126-2.616,3.622-1.49,5.57
		C239.466,129.417,240.836,130.151,242.25,130.151z"/>
	<path style="fill:#010002;" d="M265.856,220.081l-21.571-12.461c-1.953-1.131-4.449-0.451-5.57,1.49
		c-1.126,1.947-0.457,4.444,1.49,5.57l21.571,12.461c0.642,0.37,1.343,0.549,2.034,0.549c1.414,0,2.785-0.734,3.535-2.04
		C268.472,223.703,267.803,221.207,265.856,220.081z"/>
	<path style="fill:#010002;" d="M214.848,239.89c-1.131-1.936-3.622-2.589-5.58-1.474c-1.942,1.137-2.605,3.633-1.474,5.58
		l12.515,21.484c0.761,1.294,2.127,2.023,3.53,2.023c0.696,0,1.403-0.179,2.051-0.555c1.942-1.137,2.605-3.633,1.474-5.58
		L214.848,239.89z"/>
	<path style="fill:#010002;" d="M127.954,238.421c-1.958-1.115-4.444-0.468-5.58,1.474l-12.515,21.484
		c-1.131,1.947-0.473,4.444,1.474,5.58c0.647,0.37,1.354,0.555,2.051,0.555c1.409,0,2.774-0.729,3.53-2.023l12.515-21.484
		C130.559,242.055,129.901,239.558,127.954,238.421z"/>
	<path style="fill:#010002;" d="M92.937,207.62l-21.571,12.461c-1.947,1.126-2.616,3.622-1.49,5.57
		c0.756,1.305,2.127,2.04,3.535,2.04c0.691,0,1.392-0.174,2.034-0.549l21.571-12.461c1.947-1.126,2.616-3.622,1.49-5.57
		C97.386,207.169,94.89,206.489,92.937,207.62z"/>
	<path style="fill:#010002;" d="M97.017,122.537l-21.571-12.461c-1.958-1.137-4.444-0.451-5.57,1.49
		c-1.126,1.947-0.457,4.444,1.49,5.57l21.571,12.461c0.642,0.37,1.343,0.549,2.034,0.549c1.414,0,2.785-0.734,3.535-2.04
		C99.633,126.159,98.964,123.663,97.017,122.537z"/>
	<path style="fill:#010002;" d="M122.374,97.332c0.761,1.295,2.127,2.023,3.53,2.023c0.696,0,1.403-0.179,2.051-0.555
		c1.942-1.137,2.605-3.633,1.474-5.58l-12.515-21.484c-1.137-1.936-3.617-2.589-5.58-1.474c-1.942,1.137-2.605,3.633-1.474,5.58
		L122.374,97.332z"/>
	<path style="fill:#010002;" d="M299.312,114.878c10.144-21.142,6.598-47.238-10.84-64.861
		c-17.715-17.9-44.318-21.588-65.747-11.068C215.126,16.323,193.794,0,168.611,0s-46.515,16.323-54.113,38.949
		C93.073,28.435,66.465,32.118,48.75,50.018C31.313,67.64,27.761,93.737,37.91,114.878C15.833,122.771,0,143.814,0,168.611
		s15.833,45.84,37.91,53.732c-10.144,21.142-6.598,47.233,10.845,64.861c17.715,17.9,44.317,21.588,65.742,11.069
		c7.598,22.627,28.93,38.949,54.113,38.949s46.515-16.323,54.113-38.949c21.424,10.514,48.032,6.831,65.742-11.069
		c17.438-17.628,20.989-43.719,10.845-64.861c22.077-7.892,37.91-28.936,37.91-53.733S321.389,122.771,299.312,114.878z
		 M278.757,213.891c8.55,17.818,5.559,39.809-9.138,54.663c-14.93,15.088-37.35,18.194-55.408,9.328
		c-6.402,19.069-24.378,32.825-45.601,32.825s-39.205-13.755-45.601-32.825c-18.058,8.86-40.478,5.755-55.408-9.328
		c-14.696-14.854-17.688-36.844-9.138-54.663c-18.607-6.652-31.949-24.383-31.949-45.28s13.342-38.628,31.949-45.28
		c-8.55-17.818-5.559-39.809,9.138-54.663c14.93-15.088,37.35-18.194,55.408-9.328c6.402-19.069,24.378-32.825,45.601-32.825
		s39.199,13.755,45.601,32.825c18.058-8.86,40.478-5.755,55.408,9.328c14.696,14.854,17.688,36.844,9.138,54.663
		c18.607,6.652,31.949,24.389,31.949,45.28C310.707,189.508,297.365,207.239,278.757,213.891z"/>
	<path style="fill:#010002;" d="M168.611,106.453c-0.005,0-0.011,0-0.016,0c-6.005,0.011-10.873,4.884-10.862,10.894l0.071,50.899
		l-27.897,18.683c-4.988,3.345-6.326,10.1-2.986,15.093c2.099,3.127,5.548,4.824,9.051,4.824c2.083,0,4.188-0.593,6.043-1.838
		l32.732-21.919c0.011-0.005,0.016-0.016,0.027-0.022c0.598-0.402,1.142-0.859,1.632-1.349c0.256-0.256,0.457-0.555,0.685-0.832
		c0.223-0.272,0.462-0.522,0.658-0.816c0.185-0.277,0.321-0.587,0.479-0.881c0.179-0.332,0.381-0.647,0.522-0.99
		c0.125-0.305,0.196-0.631,0.294-0.946c0.109-0.359,0.25-0.707,0.321-1.077c0.136-0.685,0.212-1.398,0.212-2.127
		c0-0.005,0-0.011,0-0.016l-0.087-56.719C179.478,111.316,174.616,106.453,168.611,106.453z"/>
</g>
</svg>